<svg xmlns="http://www.w3.org/2000/svg" viewBox="0 0 155.81 34.37"><defs><style>.cls-1{font-size:27.66px;font-family:Montserrat-Black, Montserrat Black;font-weight:800;}.cls-1,.cls-7{fill:#e65540;}.cls-2{letter-spacing:-0.01em;}.cls-3{letter-spacing:-0.05em;}.cls-4{letter-spacing:0em;}.cls-5{fill:#66a8a6;}.cls-6{fill:#fff;}</style></defs><title>logo</title><g id="Layer_2" data-name="Layer 2"><text class="cls-1" transform="translate(53.73 23.51)"><tspan class="cls-2">P</tspan><tspan x="20.28" y="0">et</tspan><tspan class="cls-3" x="51.07" y="0">V</tspan><tspan class="cls-4" x="71.29" y="0">et</tspan></text></g><g id="Layer_1" data-name="Layer 1"><path class="cls-5" d="M461.92,641.39s3-15.73,3.28-14.61c2.09,3.28,36.22,4.13,40.56,0,.5.58,2.38,11.73,3.48,15.3C505.66,645.57,473,649.45,461.92,641.39Z" transform="translate(-461.27 -612.99)"/><path class="cls-6" d="M473,637.13c-2.48-2,2.65-9.53,5.34-2.3,0,0,14,.68,14.31-.2,3.88-6.21,7.06-.69,5.45,2.5,1.69,6-3.56,7.34-5.85,2.08.1,1.09-12.92,0-13.51,0C478.54,641.79,471.34,645.67,473,637.13Z" transform="translate(-461.27 -612.99)"/><path class="cls-7" d="M471.34,628c0-1.53-4.78-7.75,4-8.15,1.13-3,6.36-3.77,6.66-2.78,3.63-4.77,7.05-1.39,7.45,0,5-1.89,5.49,2.23,6.46,2.78,8.15-.69,5.22,7.71,4,8.15C494,629.33,471.34,629.51,471.34,628Z" transform="translate(-461.27 -612.99)"/><path d="M509.87,641l-3.54-15.48,0-.09c-.27-1-1.57-1.72-4.09-2.34a5.47,5.47,0,0,0-5.37-4.44,4.35,4.35,0,0,0-.51,0,5.47,5.47,0,0,0-6.7-2.64,4.83,4.83,0,0,0-8.1,0,5.47,5.47,0,0,0-6.7,2.64,4.35,4.35,0,0,0-.51,0,5.47,5.47,0,0,0-5.37,4.44c-2.58.64-3.88,1.4-4.11,2.41,0,0,0,0,0,0L461.29,641a1.23,1.23,0,0,0,0,.19c0,1.62,2.53,3.06,7.52,4.29a77.52,77.52,0,0,0,33.58,0c5-1.23,7.52-2.67,7.52-4.29A1.23,1.23,0,0,0,509.87,641Zm-7.62-16.15a6,6,0,0,1,2.35,1,7.48,7.48,0,0,1-3.13,1.19A5.45,5.45,0,0,0,502.25,624.89Zm-27.93-4.51a4,4,0,0,1,.84.09.86.86,0,0,0,1-.54,3.79,3.79,0,0,1,3.55-2.49,3.7,3.7,0,0,1,1.81.47.87.87,0,0,0,.69.05.89.89,0,0,0,.5-.47,3.13,3.13,0,0,1,5.78,0,.86.86,0,0,0,.5.47.87.87,0,0,0,.69-.05,3.7,3.7,0,0,1,1.81-.47,3.79,3.79,0,0,1,3.55,2.49.86.86,0,0,0,1,.54,4,4,0,0,1,.84-.09,3.81,3.81,0,0,1,3.77,3.77,4.37,4.37,0,0,1-2,3.43,102,102,0,0,1-25.81,0,3.92,3.92,0,0,1-2.26-3.47A3.77,3.77,0,0,1,474.32,620.38Zm-5.41,4.51a5.4,5.4,0,0,0,.78,2.17,7.48,7.48,0,0,1-3.13-1.19A6,6,0,0,1,468.91,624.89ZM501.59,644a76.24,76.24,0,0,1-32,0c-4.56-1.08-6.37-2.26-6.59-2.72l3.12-13.65a6.52,6.52,0,0,0,.8.38,23.84,23.84,0,0,0,4.44,1.13,101.82,101.82,0,0,0,28.47,0,23.77,23.77,0,0,0,4.45-1.13,6.52,6.52,0,0,0,.8-.38l3.12,13.65C508,641.71,506.15,642.89,501.59,644Z" transform="translate(-461.27 -612.99)"/><path d="M495.86,630.79A4,4,0,0,0,492,634.1H479.21a6.67,6.67,0,1,0,0,6.06H492a5.16,5.16,0,1,0,3.91-9.37Zm1.46,7a2.27,2.27,0,1,1-3.73,1.74v-.15a.82.82,0,0,0-.22-.63.86.86,0,0,0-.62-.27H478.41a.86.86,0,0,0-.62.27.82.82,0,0,0-.22.63v.15a2.27,2.27,0,1,1-3.73-1.74.84.84,0,0,0,0-1.3,2.27,2.27,0,1,1,3.73-1.74v.15a.82.82,0,0,0,.22.63.86.86,0,0,0,.62.27h14.34a.86.86,0,0,0,.62-.27.82.82,0,0,0,.22-.63v-.15a2.27,2.27,0,1,1,3.73,1.74.84.84,0,0,0,0,1.3Z" transform="translate(-461.27 -612.99)"/></g></svg>