<svg xmlns="http://www.w3.org/2000/svg" viewBox="0 0 470.73 103.85"><defs><style>.cls-1{font-size:83.58px;font-family:Montserrat-Black, Montserrat Black;font-weight:800;}.cls-2{letter-spacing:-0.01em;}.cls-3{letter-spacing:-0.05em;}.cls-4{fill:#66a8a6;}.cls-5{fill:#fff;}.cls-6{fill:#e65540;}</style></defs><title>petvet</title><g id="Layer_2" data-name="Layer 2"><text class="cls-1" transform="translate(162.32 71.04)"><tspan class="cls-2">P</tspan><tspan x="61.26" y="0">et</tspan><tspan class="cls-3" x="154.29" y="0">V</tspan><tspan x="215.38" y="0">et</tspan></text></g><g id="Layer_1" data-name="Layer 1"><path class="cls-4" d="M463.24,629.33s9-47.53,9.91-44.14c6.31,9.91,109.43,12.48,122.52,0,1.5,1.73,7.19,35.43,10.51,46.23C595.37,641.94,496.67,653.66,463.24,629.33Z" transform="translate(-461.27 -543.51)"/><path class="cls-5" d="M496.8,616.45c-7.51-6,8-28.78,16.12-6.94,0,0,42.34,2.06,43.24-.62,11.72-18.75,21.33-2.08,16.46,7.56,5.1,18-10.75,22.19-17.66,6.27.3,3.31-39,0-40.84,0C513.45,630.51,491.7,642.26,496.8,616.45Z" transform="translate(-461.27 -543.51)"/><path class="cls-6" d="M491.7,588.79c0-4.64-14.46-23.42,11.91-24.62,3.43-9,19.22-11.42,20.12-8.41,11-14.42,21.32-4.21,22.53,0,15-5.71,16.57,6.74,19.51,8.41,24.63-2.11,15.76,23.27,12,24.62C560.14,592.89,491.7,593.43,491.7,588.79Z" transform="translate(-461.27 -543.51)"/><path d="M608.08,628.27l-10.69-46.76c0-.1,0-.19-.08-.29-.81-3-4.73-5.19-12.37-7.07a16.54,16.54,0,0,0-16.22-13.42c-.51,0-1,0-1.54.07a16.53,16.53,0,0,0-20.23-8,14.58,14.58,0,0,0-24.48,0,16.53,16.53,0,0,0-20.23,8c-.51,0-1-.07-1.54-.07a16.54,16.54,0,0,0-16.22,13.42c-7.82,1.93-11.74,4.22-12.42,7.28,0,0,0,.08,0,.11l-10.68,46.73a2.1,2.1,0,0,0-.07.56c0,4.9,7.64,9.26,22.71,13,14.55,3.59,32.57,5.56,50.73,5.56s36.18-2,50.73-5.56c15.07-3.71,22.71-8.07,22.71-13A2.1,2.1,0,0,0,608.08,628.27Zm-23-48.81c4.86,1.32,6.56,2.48,7.1,3-.62.58-2.78,2-9.47,3.58A16.55,16.55,0,0,0,585.08,579.46ZM500.7,565.83a11.33,11.33,0,0,1,2.52.29,2.56,2.56,0,0,0,3-1.62,11.43,11.43,0,0,1,16.2-6.13,2.55,2.55,0,0,0,3.58-1.26,9.46,9.46,0,0,1,17.48,0,2.55,2.55,0,0,0,3.58,1.26,11.43,11.43,0,0,1,16.2,6.13,2.56,2.56,0,0,0,3,1.62,11.33,11.33,0,0,1,2.52-.29,11.54,11.54,0,0,1,11.41,11.42c.12,4.35-3,8.17-6,10.36a309.17,309.17,0,0,1-78,.12,11.84,11.84,0,0,1-6.83-10.48A11.43,11.43,0,0,1,500.7,565.83Zm-16.36,13.63a16.59,16.59,0,0,0,2.37,6.56c-6.69-1.55-8.85-3-9.47-3.58C477.78,581.94,479.48,580.78,484.34,579.46Zm98.75,57.66c-14,3.31-31.16,5.14-48.38,5.14s-34.4-1.83-48.38-5.14c-13.77-3.27-19.22-6.83-19.9-8.21l9.43-41.24a19.88,19.88,0,0,0,2.42,1.13,68.81,68.81,0,0,0,13.42,3.41c11.51,2,26.79,3,43,3s31.5-1.08,43-3a68.81,68.81,0,0,0,13.42-3.41,21.54,21.54,0,0,0,2.43-1.13L603,628.91C602.31,630.29,596.86,633.85,583.09,637.12Z" transform="translate(-461.27 -543.51)"/><path d="M565.76,597.28a12,12,0,0,0-11.8,10h-38.5a12,12,0,1,0-21.35,9.16,12,12,0,1,0,21.35,9.16H554a12,12,0,1,0,21.35-9.16,12,12,0,0,0-9.55-19.17Zm4.41,21.13a6.86,6.86,0,1,1-11.27,5.25c0-.15,0-.3,0-.44a2.55,2.55,0,0,0-2.55-2.71H513.05a2.55,2.55,0,0,0-2.55,2.71c0,.14,0,.29,0,.44a6.86,6.86,0,1,1-11.27-5.25,2.57,2.57,0,0,0,.91-2,2.53,2.53,0,0,0-.91-2,6.86,6.86,0,1,1,11.27-5.26c0,.15,0,.3,0,.44a2.57,2.57,0,0,0,2.55,2.72h43.32a2.57,2.57,0,0,0,2.55-2.72c0-.14,0-.29,0-.44a6.86,6.86,0,1,1,11.27,5.26,2.53,2.53,0,0,0-.91,2A2.57,2.57,0,0,0,570.17,618.41Z" transform="translate(-461.27 -543.51)"/></g></svg>