<?xml version="1.0" encoding="UTF-8" standalone="no"?><svg xmlns="http://www.w3.org/2000/svg" xmlns:xlink="http://www.w3.org/1999/xlink" contentScriptType="application/ecmascript" contentStyleType="text/css" height="1115px" preserveAspectRatio="none" style="width:5394px;height:1115px;" version="1.1" viewBox="0 0 5394 1115" width="5394px" zoomAndPan="magnify"><defs><filter height="300%" id="f1lpnnbxw211qm" width="300%" x="-1" y="-1"><feGaussianBlur result="blurOut" stdDeviation="2.0"/><feColorMatrix in="blurOut" result="blurOut2" type="matrix" values="0 0 0 0 0 0 0 0 0 0 0 0 0 0 0 0 0 0 .4 0"/><feOffset dx="4.0" dy="4.0" in="blurOut2" result="blurOut3"/><feBlend in="SourceGraphic" in2="blurOut3" mode="normal"/></filter></defs><g><!--class Address--><rect fill="#FEFECE" filter="url(#f1lpnnbxw211qm)" height="32" id="Address" style="stroke: #A80036; stroke-width: 1.5;" width="83" x="4145" y="1072"/><ellipse cx="4160" cy="1088" fill="#ADD1B2" rx="11" ry="11" style="stroke: #A80036; stroke-width: 1.0;"/><path d="M4162.3438,1083.6719 L4162.5156,1083.75 C4162.7344,1083.4375 4162.9375,1083.3438 4163.2344,1083.3438 C4163.5313,1083.3438 4163.8125,1083.4844 4163.9688,1083.75 C4164.0625,1083.9063 4164.0781,1084.0313 4164.0781,1084.4688 L4164.0781,1085.8906 C4164.0781,1086.3125 4164.0469,1086.5 4163.9375,1086.6563 C4163.7656,1086.875 4163.5,1087.0156 4163.2344,1087.0156 C4163.0156,1087.0156 4162.7813,1086.9063 4162.6406,1086.7656 C4162.5,1086.6406 4162.4688,1086.5156 4162.4063,1086.1094 C4162.3125,1085.7031 4162.1406,1085.4844 4161.6563,1085.2031 C4161.1875,1084.9531 4160.5781,1084.7969 4160,1084.7969 C4158.2656,1084.7969 4157.0156,1086.1094 4157.0156,1087.8906 L4157.0156,1088.9844 C4157.0156,1090.6875 4158.3125,1091.7813 4160.3594,1091.7813 C4161.125,1091.7813 4161.8125,1091.6563 4162.2344,1091.3906 C4162.4219,1091.2969 4162.4219,1091.2969 4162.875,1090.8125 C4163.0625,1090.625 4163.2656,1090.5469 4163.4844,1090.5469 C4163.9531,1090.5469 4164.3438,1090.9375 4164.3438,1091.3906 C4164.3438,1091.7813 4164.0156,1092.2344 4163.4375,1092.6406 C4162.6875,1093.1875 4161.5313,1093.4844 4160.3125,1093.4844 C4157.4219,1093.4844 4155.3125,1091.5938 4155.3125,1089.0156 L4155.3125,1087.8906 C4155.3125,1085.1719 4157.3125,1083.0938 4159.9375,1083.0938 C4160.8125,1083.0938 4161.4063,1083.2344 4162.3438,1083.6719 Z "/><text fill="#000000" font-family="sans-serif" font-size="12" lengthAdjust="spacingAndGlyphs" textLength="51" x="4174" y="1092.1543">Address</text><!--class Person--><rect fill="#FEFECE" filter="url(#f1lpnnbxw211qm)" height="32" id="Person" style="stroke: #A80036; stroke-width: 1.5;" width="76" x="1199.5" y="8"/><ellipse cx="1214.5" cy="24" fill="#ADD1B2" rx="11" ry="11" style="stroke: #A80036; stroke-width: 1.0;"/><path d="M1216.8438,19.6719 L1217.0156,19.75 C1217.2344,19.4375 1217.4375,19.3438 1217.7344,19.3438 C1218.0313,19.3438 1218.3125,19.4844 1218.4688,19.75 C1218.5625,19.9063 1218.5781,20.0313 1218.5781,20.4688 L1218.5781,21.8906 C1218.5781,22.3125 1218.5469,22.5 1218.4375,22.6563 C1218.2656,22.875 1218,23.0156 1217.7344,23.0156 C1217.5156,23.0156 1217.2813,22.9063 1217.1406,22.7656 C1217,22.6406 1216.9688,22.5156 1216.9063,22.1094 C1216.8125,21.7031 1216.6406,21.4844 1216.1563,21.2031 C1215.6875,20.9531 1215.0781,20.7969 1214.5,20.7969 C1212.7656,20.7969 1211.5156,22.1094 1211.5156,23.8906 L1211.5156,24.9844 C1211.5156,26.6875 1212.8125,27.7813 1214.8594,27.7813 C1215.625,27.7813 1216.3125,27.6563 1216.7344,27.3906 C1216.9219,27.2969 1216.9219,27.2969 1217.375,26.8125 C1217.5625,26.625 1217.7656,26.5469 1217.9844,26.5469 C1218.4531,26.5469 1218.8438,26.9375 1218.8438,27.3906 C1218.8438,27.7813 1218.5156,28.2344 1217.9375,28.6406 C1217.1875,29.1875 1216.0313,29.4844 1214.8125,29.4844 C1211.9219,29.4844 1209.8125,27.5938 1209.8125,25.0156 L1209.8125,23.8906 C1209.8125,21.1719 1211.8125,19.0938 1214.4375,19.0938 C1215.3125,19.0938 1215.9063,19.2344 1216.8438,19.6719 Z "/><text fill="#000000" font-family="sans-serif" font-size="12" lengthAdjust="spacingAndGlyphs" textLength="44" x="1228.5" y="28.1543">Person</text><!--class Admin--><rect fill="#FEFECE" filter="url(#f1lpnnbxw211qm)" height="32" id="Admin" style="stroke: #A80036; stroke-width: 1.5;" width="70" x="1775.5" y="540"/><ellipse cx="1790.5" cy="556" fill="#ADD1B2" rx="11" ry="11" style="stroke: #A80036; stroke-width: 1.0;"/><path d="M1792.8438,551.6719 L1793.0156,551.75 C1793.2344,551.4375 1793.4375,551.3438 1793.7344,551.3438 C1794.0313,551.3438 1794.3125,551.4844 1794.4688,551.75 C1794.5625,551.9063 1794.5781,552.0313 1794.5781,552.4688 L1794.5781,553.8906 C1794.5781,554.3125 1794.5469,554.5 1794.4375,554.6563 C1794.2656,554.875 1794,555.0156 1793.7344,555.0156 C1793.5156,555.0156 1793.2813,554.9063 1793.1406,554.7656 C1793,554.6406 1792.9688,554.5156 1792.9063,554.1094 C1792.8125,553.7031 1792.6406,553.4844 1792.1563,553.2031 C1791.6875,552.9531 1791.0781,552.7969 1790.5,552.7969 C1788.7656,552.7969 1787.5156,554.1094 1787.5156,555.8906 L1787.5156,556.9844 C1787.5156,558.6875 1788.8125,559.7813 1790.8594,559.7813 C1791.625,559.7813 1792.3125,559.6563 1792.7344,559.3906 C1792.9219,559.2969 1792.9219,559.2969 1793.375,558.8125 C1793.5625,558.625 1793.7656,558.5469 1793.9844,558.5469 C1794.4531,558.5469 1794.8438,558.9375 1794.8438,559.3906 C1794.8438,559.7813 1794.5156,560.2344 1793.9375,560.6406 C1793.1875,561.1875 1792.0313,561.4844 1790.8125,561.4844 C1787.9219,561.4844 1785.8125,559.5938 1785.8125,557.0156 L1785.8125,555.8906 C1785.8125,553.1719 1787.8125,551.0938 1790.4375,551.0938 C1791.3125,551.0938 1791.9063,551.2344 1792.8438,551.6719 Z "/><text fill="#000000" font-family="sans-serif" font-size="12" lengthAdjust="spacingAndGlyphs" textLength="38" x="1804.5" y="560.1543">Admin</text><!--class User--><rect fill="#FEFECE" filter="url(#f1lpnnbxw211qm)" height="32" id="User" style="stroke: #A80036; stroke-width: 1.5;" width="61" x="2963" y="540"/><ellipse cx="2978" cy="556" fill="#ADD1B2" rx="11" ry="11" style="stroke: #A80036; stroke-width: 1.0;"/><path d="M2980.3438,551.6719 L2980.5156,551.75 C2980.7344,551.4375 2980.9375,551.3438 2981.2344,551.3438 C2981.5313,551.3438 2981.8125,551.4844 2981.9688,551.75 C2982.0625,551.9063 2982.0781,552.0313 2982.0781,552.4688 L2982.0781,553.8906 C2982.0781,554.3125 2982.0469,554.5 2981.9375,554.6563 C2981.7656,554.875 2981.5,555.0156 2981.2344,555.0156 C2981.0156,555.0156 2980.7813,554.9063 2980.6406,554.7656 C2980.5,554.6406 2980.4688,554.5156 2980.4063,554.1094 C2980.3125,553.7031 2980.1406,553.4844 2979.6563,553.2031 C2979.1875,552.9531 2978.5781,552.7969 2978,552.7969 C2976.2656,552.7969 2975.0156,554.1094 2975.0156,555.8906 L2975.0156,556.9844 C2975.0156,558.6875 2976.3125,559.7813 2978.3594,559.7813 C2979.125,559.7813 2979.8125,559.6563 2980.2344,559.3906 C2980.4219,559.2969 2980.4219,559.2969 2980.875,558.8125 C2981.0625,558.625 2981.2656,558.5469 2981.4844,558.5469 C2981.9531,558.5469 2982.3438,558.9375 2982.3438,559.3906 C2982.3438,559.7813 2982.0156,560.2344 2981.4375,560.6406 C2980.6875,561.1875 2979.5313,561.4844 2978.3125,561.4844 C2975.4219,561.4844 2973.3125,559.5938 2973.3125,557.0156 L2973.3125,555.8906 C2973.3125,553.1719 2975.3125,551.0938 2977.9375,551.0938 C2978.8125,551.0938 2979.4063,551.2344 2980.3438,551.6719 Z "/><text fill="#000000" font-family="sans-serif" font-size="12" lengthAdjust="spacingAndGlyphs" textLength="29" x="2992" y="560.1543">User</text><!--class DeliveryEmployee--><rect fill="#FEFECE" filter="url(#f1lpnnbxw211qm)" height="32" id="DeliveryEmployee" style="stroke: #A80036; stroke-width: 1.5;" width="140" x="559.5" y="540"/><ellipse cx="574.5" cy="556" fill="#ADD1B2" rx="11" ry="11" style="stroke: #A80036; stroke-width: 1.0;"/><path d="M576.8438,551.6719 L577.0156,551.75 C577.2344,551.4375 577.4375,551.3438 577.7344,551.3438 C578.0313,551.3438 578.3125,551.4844 578.4688,551.75 C578.5625,551.9063 578.5781,552.0313 578.5781,552.4688 L578.5781,553.8906 C578.5781,554.3125 578.5469,554.5 578.4375,554.6563 C578.2656,554.875 578,555.0156 577.7344,555.0156 C577.5156,555.0156 577.2813,554.9063 577.1406,554.7656 C577,554.6406 576.9688,554.5156 576.9063,554.1094 C576.8125,553.7031 576.6406,553.4844 576.1563,553.2031 C575.6875,552.9531 575.0781,552.7969 574.5,552.7969 C572.7656,552.7969 571.5156,554.1094 571.5156,555.8906 L571.5156,556.9844 C571.5156,558.6875 572.8125,559.7813 574.8594,559.7813 C575.625,559.7813 576.3125,559.6563 576.7344,559.3906 C576.9219,559.2969 576.9219,559.2969 577.375,558.8125 C577.5625,558.625 577.7656,558.5469 577.9844,558.5469 C578.4531,558.5469 578.8438,558.9375 578.8438,559.3906 C578.8438,559.7813 578.5156,560.2344 577.9375,560.6406 C577.1875,561.1875 576.0313,561.4844 574.8125,561.4844 C571.9219,561.4844 569.8125,559.5938 569.8125,557.0156 L569.8125,555.8906 C569.8125,553.1719 571.8125,551.0938 574.4375,551.0938 C575.3125,551.0938 575.9063,551.2344 576.8438,551.6719 Z "/><text fill="#000000" font-family="sans-serif" font-size="12" lengthAdjust="spacingAndGlyphs" textLength="108" x="588.5" y="560.1543">DeliveryEmployee</text><!--class Packer--><rect fill="#FEFECE" filter="url(#f1lpnnbxw211qm)" height="32" id="Packer" style="stroke: #A80036; stroke-width: 1.5;" width="75" x="1200" y="540"/><ellipse cx="1215" cy="556" fill="#ADD1B2" rx="11" ry="11" style="stroke: #A80036; stroke-width: 1.0;"/><path d="M1217.3438,551.6719 L1217.5156,551.75 C1217.7344,551.4375 1217.9375,551.3438 1218.2344,551.3438 C1218.5313,551.3438 1218.8125,551.4844 1218.9688,551.75 C1219.0625,551.9063 1219.0781,552.0313 1219.0781,552.4688 L1219.0781,553.8906 C1219.0781,554.3125 1219.0469,554.5 1218.9375,554.6563 C1218.7656,554.875 1218.5,555.0156 1218.2344,555.0156 C1218.0156,555.0156 1217.7813,554.9063 1217.6406,554.7656 C1217.5,554.6406 1217.4688,554.5156 1217.4063,554.1094 C1217.3125,553.7031 1217.1406,553.4844 1216.6563,553.2031 C1216.1875,552.9531 1215.5781,552.7969 1215,552.7969 C1213.2656,552.7969 1212.0156,554.1094 1212.0156,555.8906 L1212.0156,556.9844 C1212.0156,558.6875 1213.3125,559.7813 1215.3594,559.7813 C1216.125,559.7813 1216.8125,559.6563 1217.2344,559.3906 C1217.4219,559.2969 1217.4219,559.2969 1217.875,558.8125 C1218.0625,558.625 1218.2656,558.5469 1218.4844,558.5469 C1218.9531,558.5469 1219.3438,558.9375 1219.3438,559.3906 C1219.3438,559.7813 1219.0156,560.2344 1218.4375,560.6406 C1217.6875,561.1875 1216.5313,561.4844 1215.3125,561.4844 C1212.4219,561.4844 1210.3125,559.5938 1210.3125,557.0156 L1210.3125,555.8906 C1210.3125,553.1719 1212.3125,551.0938 1214.9375,551.0938 C1215.8125,551.0938 1216.4063,551.2344 1217.3438,551.6719 Z "/><text fill="#000000" font-family="sans-serif" font-size="12" lengthAdjust="spacingAndGlyphs" textLength="43" x="1229" y="560.1543">Packer</text><!--class Vet--><rect fill="#FEFECE" filter="url(#f1lpnnbxw211qm)" height="32" id="Vet" style="stroke: #A80036; stroke-width: 1.5;" width="53" x="6" y="540"/><ellipse cx="21" cy="556" fill="#ADD1B2" rx="11" ry="11" style="stroke: #A80036; stroke-width: 1.0;"/><path d="M23.3438,551.6719 L23.5156,551.75 C23.7344,551.4375 23.9375,551.3438 24.2344,551.3438 C24.5313,551.3438 24.8125,551.4844 24.9688,551.75 C25.0625,551.9063 25.0781,552.0313 25.0781,552.4688 L25.0781,553.8906 C25.0781,554.3125 25.0469,554.5 24.9375,554.6563 C24.7656,554.875 24.5,555.0156 24.2344,555.0156 C24.0156,555.0156 23.7813,554.9063 23.6406,554.7656 C23.5,554.6406 23.4688,554.5156 23.4063,554.1094 C23.3125,553.7031 23.1406,553.4844 22.6563,553.2031 C22.1875,552.9531 21.5781,552.7969 21,552.7969 C19.2656,552.7969 18.0156,554.1094 18.0156,555.8906 L18.0156,556.9844 C18.0156,558.6875 19.3125,559.7813 21.3594,559.7813 C22.125,559.7813 22.8125,559.6563 23.2344,559.3906 C23.4219,559.2969 23.4219,559.2969 23.875,558.8125 C24.0625,558.625 24.2656,558.5469 24.4844,558.5469 C24.9531,558.5469 25.3438,558.9375 25.3438,559.3906 C25.3438,559.7813 25.0156,560.2344 24.4375,560.6406 C23.6875,561.1875 22.5313,561.4844 21.3125,561.4844 C18.4219,561.4844 16.3125,559.5938 16.3125,557.0156 L16.3125,555.8906 C16.3125,553.1719 18.3125,551.0938 20.9375,551.0938 C21.8125,551.0938 22.4063,551.2344 23.3438,551.6719 Z "/><text fill="#000000" font-family="sans-serif" font-size="12" lengthAdjust="spacingAndGlyphs" textLength="21" x="35" y="560.1543">Vet</text><!--class Consult--><rect fill="#FEFECE" filter="url(#f1lpnnbxw211qm)" height="32" id="Consult" style="stroke: #A80036; stroke-width: 1.5;" width="79" x="4720" y="540"/><ellipse cx="4735" cy="556" fill="#ADD1B2" rx="11" ry="11" style="stroke: #A80036; stroke-width: 1.0;"/><path d="M4737.3438,551.6719 L4737.5156,551.75 C4737.7344,551.4375 4737.9375,551.3438 4738.2344,551.3438 C4738.5313,551.3438 4738.8125,551.4844 4738.9688,551.75 C4739.0625,551.9063 4739.0781,552.0313 4739.0781,552.4688 L4739.0781,553.8906 C4739.0781,554.3125 4739.0469,554.5 4738.9375,554.6563 C4738.7656,554.875 4738.5,555.0156 4738.2344,555.0156 C4738.0156,555.0156 4737.7813,554.9063 4737.6406,554.7656 C4737.5,554.6406 4737.4688,554.5156 4737.4063,554.1094 C4737.3125,553.7031 4737.1406,553.4844 4736.6563,553.2031 C4736.1875,552.9531 4735.5781,552.7969 4735,552.7969 C4733.2656,552.7969 4732.0156,554.1094 4732.0156,555.8906 L4732.0156,556.9844 C4732.0156,558.6875 4733.3125,559.7813 4735.3594,559.7813 C4736.125,559.7813 4736.8125,559.6563 4737.2344,559.3906 C4737.4219,559.2969 4737.4219,559.2969 4737.875,558.8125 C4738.0625,558.625 4738.2656,558.5469 4738.4844,558.5469 C4738.9531,558.5469 4739.3438,558.9375 4739.3438,559.3906 C4739.3438,559.7813 4739.0156,560.2344 4738.4375,560.6406 C4737.6875,561.1875 4736.5313,561.4844 4735.3125,561.4844 C4732.4219,561.4844 4730.3125,559.5938 4730.3125,557.0156 L4730.3125,555.8906 C4730.3125,553.1719 4732.3125,551.0938 4734.9375,551.0938 C4735.8125,551.0938 4736.4063,551.2344 4737.3438,551.6719 Z "/><text fill="#000000" font-family="sans-serif" font-size="12" lengthAdjust="spacingAndGlyphs" textLength="47" x="4749" y="560.1543">Consult</text><!--class PackageHistory--><rect fill="#FEFECE" filter="url(#f1lpnnbxw211qm)" height="32" id="PackageHistory" style="stroke: #A80036; stroke-width: 1.5;" width="129" x="3524" y="540"/><ellipse cx="3539" cy="556" fill="#ADD1B2" rx="11" ry="11" style="stroke: #A80036; stroke-width: 1.0;"/><path d="M3541.3438,551.6719 L3541.5156,551.75 C3541.7344,551.4375 3541.9375,551.3438 3542.2344,551.3438 C3542.5313,551.3438 3542.8125,551.4844 3542.9688,551.75 C3543.0625,551.9063 3543.0781,552.0313 3543.0781,552.4688 L3543.0781,553.8906 C3543.0781,554.3125 3543.0469,554.5 3542.9375,554.6563 C3542.7656,554.875 3542.5,555.0156 3542.2344,555.0156 C3542.0156,555.0156 3541.7813,554.9063 3541.6406,554.7656 C3541.5,554.6406 3541.4688,554.5156 3541.4063,554.1094 C3541.3125,553.7031 3541.1406,553.4844 3540.6563,553.2031 C3540.1875,552.9531 3539.5781,552.7969 3539,552.7969 C3537.2656,552.7969 3536.0156,554.1094 3536.0156,555.8906 L3536.0156,556.9844 C3536.0156,558.6875 3537.3125,559.7813 3539.3594,559.7813 C3540.125,559.7813 3540.8125,559.6563 3541.2344,559.3906 C3541.4219,559.2969 3541.4219,559.2969 3541.875,558.8125 C3542.0625,558.625 3542.2656,558.5469 3542.4844,558.5469 C3542.9531,558.5469 3543.3438,558.9375 3543.3438,559.3906 C3543.3438,559.7813 3543.0156,560.2344 3542.4375,560.6406 C3541.6875,561.1875 3540.5313,561.4844 3539.3125,561.4844 C3536.4219,561.4844 3534.3125,559.5938 3534.3125,557.0156 L3534.3125,555.8906 C3534.3125,553.1719 3536.3125,551.0938 3538.9375,551.0938 C3539.8125,551.0938 3540.4063,551.2344 3541.3438,551.6719 Z "/><text fill="#000000" font-family="sans-serif" font-size="12" lengthAdjust="spacingAndGlyphs" textLength="97" x="3553" y="560.1543">PackageHistory</text><!--class Product--><rect fill="#FEFECE" filter="url(#f1lpnnbxw211qm)" height="32" id="Product" style="stroke: #A80036; stroke-width: 1.5;" width="81" x="5299" y="540"/><ellipse cx="5314" cy="556" fill="#ADD1B2" rx="11" ry="11" style="stroke: #A80036; stroke-width: 1.0;"/><path d="M5316.3438,551.6719 L5316.5156,551.75 C5316.7344,551.4375 5316.9375,551.3438 5317.2344,551.3438 C5317.5313,551.3438 5317.8125,551.4844 5317.9688,551.75 C5318.0625,551.9063 5318.0781,552.0313 5318.0781,552.4688 L5318.0781,553.8906 C5318.0781,554.3125 5318.0469,554.5 5317.9375,554.6563 C5317.7656,554.875 5317.5,555.0156 5317.2344,555.0156 C5317.0156,555.0156 5316.7813,554.9063 5316.6406,554.7656 C5316.5,554.6406 5316.4688,554.5156 5316.4063,554.1094 C5316.3125,553.7031 5316.1406,553.4844 5315.6563,553.2031 C5315.1875,552.9531 5314.5781,552.7969 5314,552.7969 C5312.2656,552.7969 5311.0156,554.1094 5311.0156,555.8906 L5311.0156,556.9844 C5311.0156,558.6875 5312.3125,559.7813 5314.3594,559.7813 C5315.125,559.7813 5315.8125,559.6563 5316.2344,559.3906 C5316.4219,559.2969 5316.4219,559.2969 5316.875,558.8125 C5317.0625,558.625 5317.2656,558.5469 5317.4844,558.5469 C5317.9531,558.5469 5318.3438,558.9375 5318.3438,559.3906 C5318.3438,559.7813 5318.0156,560.2344 5317.4375,560.6406 C5316.6875,561.1875 5315.5313,561.4844 5314.3125,561.4844 C5311.4219,561.4844 5309.3125,559.5938 5309.3125,557.0156 L5309.3125,555.8906 C5309.3125,553.1719 5311.3125,551.0938 5313.9375,551.0938 C5314.8125,551.0938 5315.4063,551.2344 5316.3438,551.6719 Z "/><text fill="#000000" font-family="sans-serif" font-size="12" lengthAdjust="spacingAndGlyphs" textLength="49" x="5328" y="560.1543">Product</text><!--class ShoppingCart--><rect fill="#FEFECE" filter="url(#f1lpnnbxw211qm)" height="32" id="ShoppingCart" style="stroke: #A80036; stroke-width: 1.5;" width="117" x="2346" y="540"/><ellipse cx="2361" cy="556" fill="#ADD1B2" rx="11" ry="11" style="stroke: #A80036; stroke-width: 1.0;"/><path d="M2363.3438,551.6719 L2363.5156,551.75 C2363.7344,551.4375 2363.9375,551.3438 2364.2344,551.3438 C2364.5313,551.3438 2364.8125,551.4844 2364.9688,551.75 C2365.0625,551.9063 2365.0781,552.0313 2365.0781,552.4688 L2365.0781,553.8906 C2365.0781,554.3125 2365.0469,554.5 2364.9375,554.6563 C2364.7656,554.875 2364.5,555.0156 2364.2344,555.0156 C2364.0156,555.0156 2363.7813,554.9063 2363.6406,554.7656 C2363.5,554.6406 2363.4688,554.5156 2363.4063,554.1094 C2363.3125,553.7031 2363.1406,553.4844 2362.6563,553.2031 C2362.1875,552.9531 2361.5781,552.7969 2361,552.7969 C2359.2656,552.7969 2358.0156,554.1094 2358.0156,555.8906 L2358.0156,556.9844 C2358.0156,558.6875 2359.3125,559.7813 2361.3594,559.7813 C2362.125,559.7813 2362.8125,559.6563 2363.2344,559.3906 C2363.4219,559.2969 2363.4219,559.2969 2363.875,558.8125 C2364.0625,558.625 2364.2656,558.5469 2364.4844,558.5469 C2364.9531,558.5469 2365.3438,558.9375 2365.3438,559.3906 C2365.3438,559.7813 2365.0156,560.2344 2364.4375,560.6406 C2363.6875,561.1875 2362.5313,561.4844 2361.3125,561.4844 C2358.4219,561.4844 2356.3125,559.5938 2356.3125,557.0156 L2356.3125,555.8906 C2356.3125,553.1719 2358.3125,551.0938 2360.9375,551.0938 C2361.8125,551.0938 2362.4063,551.2344 2363.3438,551.6719 Z "/><text fill="#000000" font-family="sans-serif" font-size="12" lengthAdjust="spacingAndGlyphs" textLength="85" x="2375" y="560.1543">ShoppingCart</text><!--class Order--><rect fill="#FEFECE" filter="url(#f1lpnnbxw211qm)" height="32" id="Order" style="stroke: #A80036; stroke-width: 1.5;" width="67" x="4153" y="540"/><ellipse cx="4168" cy="556" fill="#ADD1B2" rx="11" ry="11" style="stroke: #A80036; stroke-width: 1.0;"/><path d="M4170.3438,551.6719 L4170.5156,551.75 C4170.7344,551.4375 4170.9375,551.3438 4171.2344,551.3438 C4171.5313,551.3438 4171.8125,551.4844 4171.9688,551.75 C4172.0625,551.9063 4172.0781,552.0313 4172.0781,552.4688 L4172.0781,553.8906 C4172.0781,554.3125 4172.0469,554.5 4171.9375,554.6563 C4171.7656,554.875 4171.5,555.0156 4171.2344,555.0156 C4171.0156,555.0156 4170.7813,554.9063 4170.6406,554.7656 C4170.5,554.6406 4170.4688,554.5156 4170.4063,554.1094 C4170.3125,553.7031 4170.1406,553.4844 4169.6563,553.2031 C4169.1875,552.9531 4168.5781,552.7969 4168,552.7969 C4166.2656,552.7969 4165.0156,554.1094 4165.0156,555.8906 L4165.0156,556.9844 C4165.0156,558.6875 4166.3125,559.7813 4168.3594,559.7813 C4169.125,559.7813 4169.8125,559.6563 4170.2344,559.3906 C4170.4219,559.2969 4170.4219,559.2969 4170.875,558.8125 C4171.0625,558.625 4171.2656,558.5469 4171.4844,558.5469 C4171.9531,558.5469 4172.3438,558.9375 4172.3438,559.3906 C4172.3438,559.7813 4172.0156,560.2344 4171.4375,560.6406 C4170.6875,561.1875 4169.5313,561.4844 4168.3125,561.4844 C4165.4219,561.4844 4163.3125,559.5938 4163.3125,557.0156 L4163.3125,555.8906 C4163.3125,553.1719 4165.3125,551.0938 4167.9375,551.0938 C4168.8125,551.0938 4169.4063,551.2344 4170.3438,551.6719 Z "/><text fill="#000000" font-family="sans-serif" font-size="12" lengthAdjust="spacingAndGlyphs" textLength="35" x="4182" y="560.1543">Order</text><!--class Category--><rect fill="#FEFECE" filter="url(#f1lpnnbxw211qm)" height="32" id="Category" style="stroke: #A80036; stroke-width: 1.5;" width="88" x="5295.5" y="1072"/><ellipse cx="5310.5" cy="1088" fill="#EB937F" rx="11" ry="11" style="stroke: #A80036; stroke-width: 1.0;"/><path d="M5308.7969,1088.875 L5308.7969,1091.2969 L5313.1563,1091.2969 L5313.1563,1090.4219 C5313.1563,1089.9375 5313.1875,1089.7969 5313.2969,1089.6406 C5313.4688,1089.3906 5313.7344,1089.2813 5314,1089.2813 C5314.2813,1089.2813 5314.5625,1089.4375 5314.7344,1089.6875 C5314.8125,1089.8438 5314.8438,1089.9844 5314.8438,1090.4219 L5314.8438,1093 L5306.8438,1093 C5306.4531,1093 5306.2188,1092.9531 5306.0781,1092.8281 C5305.8594,1092.6719 5305.7188,1092.4219 5305.7188,1092.1563 C5305.7188,1091.8594 5305.875,1091.5938 5306.125,1091.4219 C5306.2813,1091.3125 5306.4375,1091.2969 5306.8438,1091.2969 L5307.0938,1091.2969 L5307.0938,1084.7813 L5306.8438,1084.7813 C5306.4219,1084.7813 5306.2344,1084.75 5306.0781,1084.6406 C5305.8594,1084.4688 5305.7188,1084.2188 5305.7188,1083.9375 C5305.7188,1083.6563 5305.875,1083.3594 5306.125,1083.2031 C5306.2813,1083.1094 5306.4063,1083.0938 5306.8438,1083.0938 L5314.4688,1083.0938 L5314.4688,1085.6406 C5314.4688,1086.1094 5314.4375,1086.25 5314.3281,1086.4219 C5314.1563,1086.6406 5313.8906,1086.7813 5313.625,1086.7813 C5313.3438,1086.7813 5313.0625,1086.625 5312.8906,1086.375 C5312.8125,1086.2188 5312.7813,1086.0469 5312.7813,1085.6406 L5312.7813,1084.7813 L5308.7969,1084.7813 L5308.7969,1087.1875 L5310.25,1087.1875 L5310.25,1087.0625 C5310.25,1086.6094 5310.2813,1086.4531 5310.3906,1086.2813 C5310.5625,1086.0625 5310.8281,1085.9219 5311.0781,1085.9219 C5311.5313,1085.9219 5311.8438,1086.2344 5311.9063,1086.7031 C5311.9219,1086.8594 5311.9219,1086.9063 5311.9219,1087.0625 L5311.9219,1088.9844 C5311.9219,1089.4375 5311.8906,1089.5938 5311.7656,1089.75 C5311.6094,1089.9688 5311.3438,1090.1094 5311.0938,1090.1094 C5310.7969,1090.1094 5310.5156,1089.9531 5310.3594,1089.7031 C5310.2813,1089.5469 5310.25,1089.3906 5310.25,1088.9844 L5310.25,1088.875 Z "/><text fill="#000000" font-family="sans-serif" font-size="12" lengthAdjust="spacingAndGlyphs" textLength="56" x="5324.5" y="1092.1543">Category</text><!--link Person to Packer--><path d="M1237.5,60.3 C1237.5,164.598 1237.5,468.499 1237.5,539.87 " fill="none" id="Person-Packer" style="stroke: #A80036; stroke-width: 1.0;"/><polygon fill="none" points="1230.5,60.01,1237.5,40.01,1244.5,60.01,1230.5,60.01" style="stroke: #A80036; stroke-width: 1.0;"/><!--link Person to Admin--><path d="M1268.52,53.69 C1373.79,151.063 1715.28,466.923 1794.14,539.87 " fill="none" id="Person-Admin" style="stroke: #A80036; stroke-width: 1.0;"/><polygon fill="none" points="1263.65,58.73,1253.73,40.01,1273.16,48.45,1263.65,58.73" style="stroke: #A80036; stroke-width: 1.0;"/><!--link Person to User--><path d="M1295.19,42.41 C1571.7,125.868 2756.57,483.489 2962.82,545.741 " fill="none" id="Person-User" style="stroke: #A80036; stroke-width: 1.0;"/><polygon fill="none" points="1292.93,49.04,1275.81,36.56,1296.98,35.64,1292.93,49.04" style="stroke: #A80036; stroke-width: 1.0;"/><!--link Person to DeliveryEmployee--><path d="M1204.93,53.39 C1093.63,150.413 730.626,466.848 646.857,539.87 " fill="none" id="Person-DeliveryEmployee" style="stroke: #A80036; stroke-width: 1.0;"/><polygon fill="none" points="1200.61,47.87,1220.28,40.01,1209.81,58.43,1200.61,47.87" style="stroke: #A80036; stroke-width: 1.0;"/><!--link Person to Vet--><path d="M1184.98,48.1 C976.526,139.785 211.422,476.304 59.0106,543.34 " fill="none" id="Person-Vet" style="stroke: #A80036; stroke-width: 1.0;"/><polygon fill="none" points="1182.25,41.65,1203.38,40.01,1187.89,54.47,1182.25,41.65" style="stroke: #A80036; stroke-width: 1.0;"/><!--link Product to Category--><path d="M5339.5,585.091 C5339.5,681.762 5339.5,998.773 5339.5,1071.8701 " fill="none" id="Product-Category" style="stroke: #A80036; stroke-width: 1.0;"/><polygon fill="#FFFFFF" points="5339.5,572.008,5335.5,578.008,5339.5,584.008,5343.5,578.008,5339.5,572.008" style="stroke: #A80036; stroke-width: 1.0;"/><!--link Order to Address--><path d="M4186.5,585.091 C4186.5,681.762 4186.5,998.773 4186.5,1071.8701 " fill="none" id="Order-Address" style="stroke: #A80036; stroke-width: 1.0;"/><polygon fill="#FFFFFF" points="4186.5,572.008,4182.5,578.008,4186.5,584.008,4190.5,578.008,4186.5,572.008" style="stroke: #A80036; stroke-width: 1.0;"/><!--link Consult to Address--><path d="M4733.49,581.061 C4634.52,672.599 4283.02,997.722 4202.86,1071.8701 " fill="none" id="Consult-Address" style="stroke: #A80036; stroke-width: 1.0;"/><polygon fill="#FFFFFF" points="4743.27,572.008,4736.1492,573.1459,4734.4609,580.1566,4741.5816,579.0187,4743.27,572.008" style="stroke: #A80036; stroke-width: 1.0;"/><!--link User to Address--><path d="M3024.19,570.634 C3190.13,644.356 3979.06,994.842 4152.66,1071.9666 " fill="none" id="User-Address" style="stroke: #A80036; stroke-width: 1.0;"/><text fill="#000000" font-family="sans-serif" font-size="13" lengthAdjust="spacingAndGlyphs" textLength="8" x="3032.2121" y="569.366">1</text><text fill="#000000" font-family="sans-serif" font-size="13" lengthAdjust="spacingAndGlyphs" textLength="23" x="4114.0744" y="1060.9667">0..*</text><!--link Vet to Consult--><path d="M54.626,539.938 C124.381,490.423 347.636,340.438 559.5,290 C1350.94,101.58 3428.22,105.146 4220.5,290 C4436.45,340.385 4665.28,490.405 4736.81,539.933 " fill="none" id="Vet-Consult" style="stroke: #A80036; stroke-width: 1.0;"/><text fill="#000000" font-family="sans-serif" font-size="13" lengthAdjust="spacingAndGlyphs" textLength="8" x="52.8568" y="528.9283">1</text><text fill="#000000" font-family="sans-serif" font-size="13" lengthAdjust="spacingAndGlyphs" textLength="23" x="4732.9634" y="528.9216">0..*</text><!--link DeliveryEmployee to Order--><path d="M653.657,539.923 C729.762,490.362 972.951,340.26 1199.5,290 C2264.28,53.78 2591.92,39.81 3653.5,290 C3867.4,340.411 4093.45,490.414 4164.09,539.936 " fill="none" id="DeliveryEmployee-Order" style="stroke: #A80036; stroke-width: 1.0;"/><text fill="#000000" font-family="sans-serif" font-size="13" lengthAdjust="spacingAndGlyphs" textLength="8" x="652.586" y="528.9081">1</text><text fill="#000000" font-family="sans-serif" font-size="13" lengthAdjust="spacingAndGlyphs" textLength="23" x="4129.4334" y="528.9256">0..*</text><!--link User to PackageHistory--><path d="M3024.01,556 C3190.58,556 3357.15,556 3523.73,556 " fill="none" id="User-PackageHistory" style="stroke: #A80036; stroke-width: 1.0;"/><text fill="#000000" font-family="sans-serif" font-size="13" lengthAdjust="spacingAndGlyphs" textLength="8" x="3031.9904" y="551.3479">1</text><text fill="#000000" font-family="sans-serif" font-size="13" lengthAdjust="spacingAndGlyphs" textLength="8" x="3508.2083" y="552.2538">1</text><!--link Order to Product--><path d="M4208.96,539.935 C4279.75,490.412 4506.26,340.407 4720.5,290 C4972.7,230.664 5251.88,473.143 5322.54,539.576 " fill="none" id="Order-Product" style="stroke: #A80036; stroke-width: 1.0;"/><text fill="#000000" font-family="sans-serif" font-size="13" lengthAdjust="spacingAndGlyphs" textLength="8" x="4207.3056" y="528.9243">1</text><text fill="#000000" font-family="sans-serif" font-size="13" lengthAdjust="spacingAndGlyphs" textLength="23" x="5290.4684" y="529.0383">1..*</text><!--link ShoppingCart to Product--><path d="M2428.14,539.926 C2502.62,490.377 2740.72,340.302 2963.5,290 C3759.46,110.276 4004.78,104.883 4799.5,290 C5015.79,340.38 5245.08,490.403 5316.76,539.933 " fill="none" id="ShoppingCart-Product" style="stroke: #A80036; stroke-width: 1.0;"/><text fill="#000000" font-family="sans-serif" font-size="13" lengthAdjust="spacingAndGlyphs" textLength="8" x="2426.8912" y="528.9122">1</text><text fill="#000000" font-family="sans-serif" font-size="13" lengthAdjust="spacingAndGlyphs" textLength="23" x="5312.8963" y="528.9216">0..*</text><!--link User to Consult--><path d="M3015.82,539.937 C3086.16,490.417 3311.28,340.42 3524.5,290 C3825.53,218.816 3919.26,219.714 4220.5,290 C4436.45,340.385 4665.28,490.405 4736.81,539.933 " fill="none" id="User-Consult" style="stroke: #A80036; stroke-width: 1.0;"/><text fill="#000000" font-family="sans-serif" font-size="13" lengthAdjust="spacingAndGlyphs" textLength="8" x="3014.1175" y="528.9269">1</text><text fill="#000000" font-family="sans-serif" font-size="13" lengthAdjust="spacingAndGlyphs" textLength="23" x="4702.0572" y="528.9216">0..*</text><!--link PackageHistory to Order--><path d="M3653.03,556 C3819.65,556 3986.28,556 4152.9,556 " fill="none" id="PackageHistory-Order" style="stroke: #A80036; stroke-width: 1.0;"/><text fill="#000000" font-family="sans-serif" font-size="13" lengthAdjust="spacingAndGlyphs" textLength="8" x="3660.9538" y="552.2074">1</text><text fill="#000000" font-family="sans-serif" font-size="13" lengthAdjust="spacingAndGlyphs" textLength="23" x="4121.8666" y="551.7428">0..*</text><!--link Packer to Order--><path d="M1260.15,539.934 C1331.53,490.406 1559.89,340.389 1775.5,290 C2588.27,100.05 2841.09,98.54 3653.5,290 C3867.4,340.411 4093.45,490.414 4164.09,539.936 " fill="none" id="Packer-Order" style="stroke: #A80036; stroke-width: 1.0;"/><text fill="#000000" font-family="sans-serif" font-size="13" lengthAdjust="spacingAndGlyphs" textLength="8" x="1258.5609" y="528.9229">1</text><text fill="#000000" font-family="sans-serif" font-size="13" lengthAdjust="spacingAndGlyphs" textLength="23" x="4160.3397" y="528.9256">0..*</text><!--link ShoppingCart to User--><path d="M2463.17,556 C2629.76,556 2796.35,556 2962.94,556 " fill="none" id="ShoppingCart-User" style="stroke: #A80036; stroke-width: 1.0;"/><text fill="#000000" font-family="sans-serif" font-size="13" lengthAdjust="spacingAndGlyphs" textLength="8" x="2470.8079" y="552.1609">1</text><text fill="#000000" font-family="sans-serif" font-size="13" lengthAdjust="spacingAndGlyphs" textLength="8" x="2946.948" y="551.3479">1</text><!--
@startuml
skinparam nodesep 500
skinparam ranksep 500
class Address{
}
class Person{
}
class Admin{
}
class User{
}
class DeliveryEmployee{
}
class Packer{
}
class Vet{
}
class Consult{
}
class PackageHistory{
}
class Product{
}
class ShoppingCart{
}
class Order{
}
enum Category{
}
Person <|- - Packer
Person <|- - Admin
Person <|- - User
Person <|- - DeliveryEmployee
Person <|- - Vet
Product o- - Category
Order o- - Address
Consult o- - Address
User "1" - "0..*" Address
Vet "1" - "0..*" Consult
DeliveryEmployee "1" - "0..*" Order
User "1" - "1" PackageHistory
Order "1" - "1..*" Product
ShoppingCart "1" - "0..*" Product
User "1" - "0..*" Consult
PackageHistory "1" - "0..*" Order
Packer "1" - "0..*" Order 
ShoppingCart "1" - "1" User
hide members
@enduml

PlantUML version 1.2019.05beta2(Unknown compile time)
(GPL source distribution)
Java Runtime: Java(TM) SE Runtime Environment
JVM: Java HotSpot(TM) 64-Bit Server VM
Java Version: 1.7.0_25-b15
Operating System: Linux
Default Encoding: UTF-8
Language: en
Country: US
--></g></svg>